<?xml version="1.0" standalone="no"?>
<!DOCTYPE svg PUBLIC "-//W3C//DTD SVG 20010904//EN"
 "http://www.w3.org/TR/2001/REC-SVG-20010904/DTD/svg10.dtd">
<svg version="1.0" xmlns="http://www.w3.org/2000/svg"
 width="626.000000pt" height="626.000000pt" viewBox="0 0 626.000000 626.000000"
 preserveAspectRatio="xMidYMid meet">

<g transform="translate(0.000000,626.000000) scale(0.100000,-0.100000)"
fill="#000000" stroke="none">
<path d="M2925 5718 c8 -76 -4 -111 -42 -126 -15 -5 -86 -17 -158 -26 -124
-15 -218 -35 -350 -75 -33 -10 -87 -26 -120 -36 -33 -9 -156 -64 -273 -122
-160 -79 -240 -125 -319 -184 -57 -44 -107 -79 -110 -79 -11 0 -183 -152 -243
-216 -87 -92 -200 -220 -200 -227 0 -3 -26 -42 -58 -87 -31 -45 -68 -99 -82
-119 -63 -94 -234 -436 -254 -511 -9 -30 -31 -109 -50 -175 -42 -144 -72 -287
-86 -413 -11 -95 -15 -486 -5 -501 2 -5 -6 -11 -18 -15 -13 -3 -36 -15 -50
-27 -23 -17 -27 -28 -27 -74 0 -63 19 -87 52 -66 18 11 20 11 15 -2 -3 -9 19
1 51 23 71 47 137 77 201 92 28 6 53 18 56 26 4 12 3 12 -9 3 -12 -10 -13 -5
-10 36 7 70 23 148 49 233 13 41 26 87 29 101 10 45 164 266 224 320 67 61
211 169 226 169 6 0 56 20 111 44 60 27 136 52 190 62 90 17 261 23 388 14
l68 -5 33 81 c37 91 81 174 105 201 30 34 71 92 71 101 0 18 174 170 260 228
112 76 325 159 485 189 102 20 322 19 417 0 91 -19 226 -60 264 -80 16 -8 35
-15 42 -15 43 0 296 -165 381 -250 31 -30 74 -77 96 -105 22 -27 43 -52 46
-55 18 -14 131 -245 154 -315 47 -146 75 -324 75 -485 l0 -97 93 -6 c109 -8
248 -43 334 -86 34 -17 67 -31 73 -31 12 0 92 -53 120 -79 147 -139 172 -168
211 -244 22 -44 45 -87 50 -96 6 -9 20 -45 33 -81 l22 -65 44 0 c38 0 45 3 50
24 5 21 7 22 18 8 14 -17 48 -12 73 10 14 12 18 12 22 1 4 -8 6 -7 6 5 1 9 -3
17 -9 17 -5 0 -10 5 -10 11 0 5 4 8 9 5 5 -4 7 3 4 13 -3 11 -13 21 -23 24
-13 3 -16 11 -12 33 2 16 1 26 -2 22 -17 -15 -41 27 -37 64 1 21 6 36 10 34 3
-2 4 23 3 56 -2 33 0 58 5 55 4 -3 5 110 2 251 -7 257 -24 405 -64 552 -8 30
-15 65 -15 78 0 26 -38 143 -76 234 -13 31 -21 65 -18 75 4 13 3 14 -3 5 -7
-9 -25 20 -61 100 -49 108 -59 156 -21 107 14 -19 15 -27 6 -38 -8 -10 -9 -13
-1 -8 7 4 17 0 24 -8 6 -7 17 -12 25 -9 7 3 16 0 21 -7 5 -9 2 -10 -10 -6 -13
5 -16 2 -14 -11 1 -9 -1 -23 -5 -29 -6 -9 -2 -13 12 -13 22 0 30 -20 9 -20 -7
0 -4 -6 7 -12 11 -6 25 -19 32 -27 11 -14 12 -12 13 11 0 15 5 30 10 33 6 3
10 1 10 -4 0 -6 4 -11 9 -11 10 0 8 21 -4 53 -10 24 3 21 26 -5 l19 -23 -6 40
c-4 22 -10 44 -15 50 -5 5 -9 17 -9 26 0 10 -4 19 -9 21 -5 2 -25 34 -45 71
-19 37 -30 65 -23 62 6 -4 4 0 -5 8 -10 8 -15 17 -11 20 3 4 1 7 -5 7 -7 0
-11 3 -11 8 3 17 -2 35 -8 29 -3 -4 -11 3 -18 16 -7 12 -27 50 -45 85 -19 35
-43 73 -54 85 -12 13 -47 55 -79 95 -31 39 -79 93 -105 120 -26 26 -84 86
-128 132 -45 47 -110 108 -144 135 -35 28 -81 66 -103 87 -22 20 -52 42 -66
50 -27 14 -122 78 -131 88 -9 11 -175 109 -201 118 -13 6 -67 31 -119 57 -105
52 -301 128 -370 144 -213 50 -267 61 -350 75 -96 16 -383 36 -518 36 l-74 0
7 -62z m383 -516 c3 -16 -2 -22 -17 -22 -23 0 -35 15 -28 35 9 21 42 11 45
-13z m912 -142 c0 -5 -5 -10 -11 -10 -5 0 -7 5 -4 10 3 6 8 10 11 10 2 0 4 -4
4 -10z m-675 -48 c0 -18 -20 -15 -23 4 -3 10 1 15 10 12 7 -3 13 -10 13 -16z
m-787 -30 c2 -15 -2 -22 -12 -22 -11 0 -16 9 -16 26 0 31 23 28 28 -4z m1734
11 c-6 -2 -9 -10 -6 -15 4 -7 2 -8 -5 -4 -13 9 -5 26 12 25 9 0 8 -2 -1 -6z
m-377 -44 c0 -7 -8 -15 -17 -17 -18 -3 -25 18 -11 32 10 10 28 1 28 -15z
m-397 -11 c-5 -34 -38 -37 -38 -4 0 20 5 26 21 26 15 0 20 -5 17 -22z m-1498
-53 c0 -26 -28 -40 -60 -30 -26 8 -26 40 2 59 27 19 58 5 58 -29z m2010 -75
c39 -39 14 -100 -42 -100 -32 0 -42 16 -42 68 0 52 46 70 84 32z m-1552 -2
c16 -16 15 -53 -3 -68 -21 -17 -47 -9 -64 22 -13 22 -13 29 -2 42 16 19 52 21
69 4z m-317 -21 c-10 -9 -11 -8 -5 6 3 10 9 15 12 12 3 -3 0 -11 -7 -18z m689
3 c0 -13 -7 -20 -20 -20 -13 0 -20 7 -20 20 0 13 7 20 20 20 13 0 20 -7 20
-20z m648 3 c-2 -10 -10 -18 -18 -18 -8 0 -16 8 -18 18 -2 12 3 17 18 17 15 0
20 -5 18 -17z m615 -59 c9 -9 -4 -35 -14 -28 -5 3 -9 12 -9 20 0 14 12 19 23
8z m435 -51 c5 -17 -26 -29 -40 -15 -6 6 -7 15 -3 22 9 14 37 9 43 -7z m-3243
-23 c-3 -5 -10 -10 -16 -10 -5 0 -9 5 -9 10 0 6 7 10 16 10 8 0 12 -4 9 -10z
m1733 -2 c-3 -7 -11 -13 -18 -13 -7 0 -15 6 -17 13 -3 7 4 12 17 12 13 0 20
-5 18 -12z m-1550 -10 c17 -17 15 -38 -5 -60 -20 -22 -41 -23 -65 -1 -18 16
-24 53 -11 66 11 12 68 8 81 -5z m3190 -61 c4 -20 -25 -34 -40 -19 -15 15 -1
44 19 40 10 -2 19 -11 21 -21z m-2849 -41 c9 -10 7 -16 -5 -27 -13 -10 -17
-10 -24 1 -9 14 -3 40 10 40 4 0 13 -6 19 -14z m-279 -41 c16 -20 6 -45 -19
-45 -25 0 -34 14 -26 40 8 24 28 26 45 5z m2700 -41 c0 -8 -9 -14 -20 -14 -19
0 -27 19 -14 33 10 9 34 -4 34 -19z m585 -13 c3 -5 1 -12 -5 -16 -5 -3 -10 1
-10 9 0 18 6 21 15 7z m-2727 -38 c5 -17 -26 -29 -40 -15 -6 6 -7 15 -3 22 9
14 37 9 43 -7z m-830 -86 c4 -20 -25 -34 -40 -19 -15 15 -1 44 19 40 10 -2 19
-11 21 -21z m3072 -71 c0 -20 -19 -31 -32 -18 -6 6 -7 15 -4 21 10 16 36 13
36 -3z m548 -39 c4 -21 -27 -35 -38 -17 -12 19 0 42 19 38 9 -2 17 -11 19 -21z
m-3874 -9 c13 -19 14 -25 2 -43 -26 -39 -76 -26 -76 19 0 46 48 62 74 24z
m4270 -27 c3 -5 -1 -11 -9 -14 -9 -4 -12 -1 -8 9 6 16 10 17 17 5z m-3733 -51
c6 0 7 5 4 10 -3 6 -1 10 5 10 7 0 10 -6 8 -12 -6 -17 -31 -17 -34 0 -1 7 0 8
3 2 2 -5 9 -10 14 -10z m209 -47 c0 -20 -4 -24 -22 -21 -25 3 -37 36 -17 48
20 13 39 0 39 -27z m2790 -38 c0 -8 -7 -15 -15 -15 -8 0 -15 7 -15 15 0 8 7
15 15 15 8 0 15 -7 15 -15z m200 -236 c0 -20 -24 -26 -35 -9 -8 13 14 42 26
34 5 -3 9 -14 9 -25z m398 -37 c6 -59 -43 -85 -73 -38 -12 18 -13 30 -5 50 8
23 15 27 42 24 29 -3 33 -7 36 -36z m-4393 -156 c17 -26 11 -52 -15 -66 -36
-19 -68 48 -38 78 18 18 36 14 53 -12z m4421 -347 c3 -6 1 -16 -5 -22 -9 -9
-14 -8 -21 3 -9 15 -4 30 10 30 5 0 12 -5 16 -11z m-61 -69 c8 -13 -13 -40
-31 -40 -8 0 -14 10 -14 25 0 18 5 25 19 25 11 0 23 -5 26 -10z m-4747 -487
c-9 -10 -18 -27 -21 -38 -4 -16 -5 -15 -6 6 -1 25 15 49 33 49 5 0 2 -8 -6
-17z m5053 -70 c0 -5 2 -16 4 -25 4 -21 -20 -44 -30 -28 -3 5 -1 10 4 10 6 0
11 5 11 11 0 5 -4 8 -9 5 -5 -4 -7 3 -4 14 5 19 22 28 24 13z m6 -105 c-3 -8
-6 -5 -6 6 -1 11 2 17 5 13 3 -3 4 -12 1 -19z m-7 -29 c0 -5 -4 -9 -8 -9 -5 0
-9 7 -9 15 0 8 4 12 9 9 4 -3 8 -9 8 -15z"/>
<path d="M5547 4081 c-3 -11 2 -26 10 -32 12 -11 13 -8 7 17 -9 37 -10 39 -17
15z"/>
<path d="M3888 4057 c-7 -7 -30 -23 -50 -35 -29 -18 -41 -21 -57 -13 -26 15
-31 14 -31 -5 0 -8 5 -12 11 -8 7 4 10 -1 7 -11 -4 -23 -28 -32 -28 -11 0 22
-3 21 -44 -16 -34 -30 -56 -37 -118 -40 -23 -1 -26 -4 -18 -19 13 -24 13 -39
-1 -39 -6 0 -9 7 -6 14 4 10 1 13 -9 9 -17 -6 -18 -25 -3 -40 8 -8 6 -11 -7
-10 -24 3 -31 -30 -7 -35 17 -3 17 -4 0 -11 -13 -5 -21 0 -30 21 -12 28 -25
42 -41 42 -6 0 -1 -6 9 -14 12 -9 16 -19 11 -32 -6 -16 -9 -16 -16 -4 -10 16
-11 13 -14 -32 0 -14 -5 -30 -10 -35 -5 -5 -6 -2 -1 6 5 9 3 12 -6 9 -8 -3
-13 -15 -11 -29 2 -19 1 -21 -7 -9 -7 10 -11 11 -11 3 0 -13 39 -39 53 -35 5
1 6 -2 3 -7 -3 -5 -16 -7 -28 -3 -13 3 -19 1 -15 -5 6 -10 -12 -23 -41 -29
-24 -5 -41 -25 -37 -46 3 -15 0 -18 -11 -14 -9 3 -17 6 -18 6 -2 0 -1 11 1 24
3 13 0 27 -5 30 -7 4 -10 -4 -9 -21 1 -18 -3 -27 -10 -26 -16 4 -47 -43 -38
-57 3 -5 1 -10 -5 -10 -6 0 -8 -4 -5 -10 9 -15 -2 -12 -19 5 -16 16 -46 10
-46 -10 0 -6 -9 -20 -20 -30 -11 -10 -20 -22 -20 -28 0 -17 -88 -97 -107 -97
-15 0 -16 2 -3 11 12 8 11 9 -6 5 -13 -4 -27 1 -39 14 -14 15 -22 17 -37 9
-10 -5 -16 -14 -13 -20 10 -15 -11 -10 -25 6 -13 16 -55 21 -45 6 3 -5 -5 -13
-17 -17 -36 -12 -49 -13 -43 -3 4 5 -1 6 -9 3 -8 -3 -17 -12 -20 -20 -9 -23
-54 -36 -78 -23 -16 8 -19 8 -13 -1 6 -9 3 -9 -13 -1 -27 15 -65 14 -81 -1
-11 -11 -13 -10 -7 0 6 10 2 10 -18 1 -14 -7 -23 -16 -20 -20 2 -4 -4 -12 -14
-18 -9 -5 -18 -19 -19 -30 -2 -19 4 -21 46 -21 41 0 52 -5 81 -35 39 -40 43
-41 78 -17 15 10 44 23 64 30 33 11 42 11 77 -7 22 -12 43 -25 46 -31 4 -6 10
-8 15 -5 4 3 10 -4 13 -15 4 -17 9 -19 30 -11 29 11 47 -4 68 -54 16 -37 18
-58 5 -66 -15 -11 2 -42 20 -35 12 4 15 2 10 -9 -9 -24 27 -18 52 8 12 13 22
34 22 47 0 36 139 154 140 118 1 -8 5 -7 14 5 9 12 16 14 21 8 3 -6 13 -11 21
-11 8 0 12 5 9 10 -3 6 -1 10 6 10 6 0 20 10 30 22 11 11 19 17 19 12 0 -6 -5
-15 -12 -22 -9 -9 -9 -12 0 -12 6 0 16 8 22 18 8 13 10 13 9 2 -4 -44 1 -62
17 -56 14 5 15 4 4 -9 -7 -8 -9 -15 -6 -15 4 0 -5 -11 -20 -25 -15 -14 -33
-25 -40 -25 -7 0 -16 -5 -20 -12 -5 -7 -3 -8 6 -3 8 5 11 4 7 -2 -4 -6 -18
-10 -33 -10 -14 0 -38 -9 -53 -20 -14 -11 -36 -23 -49 -27 -12 -4 -22 -12 -22
-18 0 -5 -6 -8 -14 -5 -14 6 -69 -40 -62 -52 3 -4 -4 -8 -15 -8 -27 -2 -50
-23 -42 -37 4 -6 -1 -5 -11 3 -15 13 -20 12 -41 -11 -22 -24 -39 -30 -177 -63
-12 -3 -15 1 -11 13 5 13 0 11 -19 -6 -21 -19 -41 -25 -102 -29 -42 -3 -76
-10 -76 -15 0 -5 -4 -7 -9 -3 -5 3 -16 -1 -24 -9 -8 -8 -16 -13 -19 -11 -2 2
-4 -6 -3 -19 0 -13 14 -40 32 -61 27 -31 30 -40 20 -56 -6 -10 -17 -19 -24
-19 -7 0 -13 -4 -13 -10 0 -5 -6 -10 -14 -10 -8 0 -21 -6 -28 -12 -14 -14 -28
-18 -66 -23 -12 -1 -25 -5 -29 -8 -3 -4 -13 -3 -22 2 -30 15 -83 22 -75 9 4
-7 3 -8 -5 -4 -7 5 -28 -3 -49 -17 -36 -23 -77 -27 -122 -10 -22 9 -73 10 -85
2 -20 -13 -75 -21 -75 -10 0 7 -8 7 -23 2 -13 -5 -30 -5 -38 -1 -10 6 -21 3
-31 -10 -15 -17 -15 -20 7 -40 12 -11 32 -22 43 -23 12 0 19 -3 17 -5 -2 -3
14 -25 36 -51 56 -63 83 -114 104 -193 10 -38 20 -68 22 -68 2 0 19 11 36 24
18 14 61 38 97 55 55 26 77 31 143 31 67 0 86 -4 138 -31 33 -16 80 -48 104
-70 l43 -40 26 43 c36 61 60 85 152 154 109 82 189 108 313 102 79 -4 98 -9
167 -42 101 -50 188 -136 238 -236 20 -40 39 -90 42 -111 4 -21 9 -37 13 -35
3 2 6 -29 6 -69 0 -47 -3 -71 -10 -67 -5 3 -3 -5 6 -18 16 -24 70 -65 55 -42
-4 6 -2 12 3 12 6 0 11 -4 11 -10 0 -5 5 -10 10 -10 6 0 10 7 10 15 0 23 36
18 48 -7 8 -18 11 -19 11 -5 1 9 8 17 16 17 8 0 19 9 25 20 10 18 8 20 -17 20
-19 0 -24 3 -15 9 7 4 33 5 57 1 28 -4 42 -3 38 3 -4 6 2 8 15 5 12 -4 22 -2
22 4 0 5 4 7 9 4 5 -3 20 4 35 15 14 11 26 16 26 11 0 -5 9 -12 19 -15 15 -4
18 -1 13 12 -5 14 -4 15 14 1 17 -14 18 -14 6 2 -11 14 -8 20 30 43 28 17 34
24 18 19 -14 -3 -26 -11 -28 -15 -2 -5 -11 -9 -19 -9 -9 0 -13 6 -10 14 3 8 1
17 -6 19 -7 3 12 4 42 2 29 -1 74 2 100 6 25 4 48 3 49 -2 2 -5 17 -9 32 -9
16 0 31 -4 34 -9 7 -11 48 -2 58 13 5 8 14 7 29 -2 19 -12 21 -12 16 1 -4 10
2 17 20 21 28 8 63 -1 63 -14 0 -5 -6 -7 -14 -4 -8 3 -17 0 -21 -5 -3 -6 -12
-8 -18 -5 -7 4 -8 3 -4 -2 4 -4 18 -9 30 -10 43 -4 87 -13 96 -18 5 -3 14 1
21 9 7 8 16 12 21 9 14 -8 10 3 -7 20 -14 15 -14 16 4 16 14 0 19 6 17 18 -1
9 0 12 2 5 9 -26 42 -25 68 3 14 15 25 32 25 38 -1 6 -9 1 -19 -11 -20 -24
-41 -30 -41 -12 0 5 4 8 9 5 5 -3 11 4 14 15 4 15 12 20 24 17 10 -3 24 1 31
8 9 10 7 14 -11 17 -19 5 -19 5 3 4 15 -1 26 -10 30 -22 5 -21 50 -29 66 -12
5 4 1 5 -8 2 -9 -4 -19 -1 -24 6 -4 7 -3 10 4 5 6 -3 15 1 20 9 12 23 66 29
82 10 10 -12 10 -15 0 -15 -8 0 -11 -2 -8 -5 3 -3 16 -1 29 4 17 7 19 10 7 10
-22 1 -23 14 -3 31 9 8 15 8 15 2 0 -6 -6 -12 -12 -14 -7 -3 12 -5 42 -6 30 0
56 -6 58 -11 2 -6 14 -8 28 -5 24 6 35 -11 12 -18 -7 -3 -5 -7 6 -11 10 -4 15
-3 11 3 -3 6 -1 10 5 10 6 0 8 5 5 10 -3 6 0 10 7 10 11 0 10 2 0 9 -11 7 -11
9 1 14 8 3 20 0 26 -6 8 -8 14 -7 24 2 10 11 9 12 -1 7 -18 -11 -44 13 -37 35
3 9 1 20 -5 24 -5 3 -10 -2 -10 -12 0 -11 -3 -14 -8 -7 -4 6 -15 10 -24 8 -10
-1 -18 2 -18 8 0 7 -15 8 -40 4 -26 -4 -40 -2 -40 4 0 6 4 9 9 6 4 -3 22 -1
39 3 17 5 33 6 37 3 12 -12 125 -10 125 2 0 6 4 5 9 -3 5 -8 18 -12 29 -8 12
2 23 0 26 -7 3 -8 5 -8 5 1 1 6 -6 19 -15 27 -14 15 -14 16 3 17 16 0 16 1 -2
9 -12 5 -14 9 -6 9 22 1 50 -29 44 -47 -4 -14 -3 -14 5 -3 6 9 17 11 28 7 18
-7 18 -8 1 -21 -11 -8 -26 -11 -35 -7 -14 5 -15 4 -2 -10 8 -9 18 -14 22 -12
4 2 9 0 13 -6 3 -5 12 -10 18 -10 8 0 7 3 -2 9 -11 7 -10 11 5 19 15 9 17 13
7 23 -7 7 -13 22 -13 32 0 17 5 19 40 14 23 -3 40 -1 40 5 0 5 5 6 12 2 6 -4
8 -3 4 4 -3 6 -15 9 -26 7 -11 -2 -20 0 -20 6 0 5 7 9 16 9 9 0 14 5 12 11 -2
6 -7 10 -11 10 -4 -1 -16 -1 -28 -1 -11 0 -18 -4 -15 -8 2 -4 -4 -9 -15 -9
-31 -3 -22 15 12 22 23 5 28 9 18 16 -12 7 -11 9 1 10 8 1 19 1 24 0 5 -1 12
2 15 7 3 5 29 12 58 15 40 5 53 3 57 -9 3 -9 1 -12 -4 -9 -6 3 -10 -1 -10 -9
0 -18 11 -21 26 -6 6 6 29 12 52 14 35 3 45 0 53 -17 8 -15 8 -22 -2 -28 -11
-7 -10 -9 3 -9 9 0 23 7 32 15 16 16 31 20 22 6 -3 -5 5 -11 19 -13 14 -3 25
-2 25 3 0 8 33 4 51 -6 6 -4 5 2 -3 14 -13 22 -28 28 -28 12 0 -11 -26 -9 -37
3 -4 4 -3 7 2 6 42 -9 51 34 10 44 -14 4 -23 10 -21 15 7 10 -70 45 -138 62
-45 11 -181 8 -217 -6 -11 -4 -18 7 -28 42 -22 72 -76 172 -123 228 -77 91
-155 163 -204 189 -235 121 -289 136 -488 136 l-141 0 0 198 c0 183 -12 318
-36 417 -14 55 -91 233 -110 253 -8 10 -24 30 -33 45 -10 15 -24 27 -32 27 -8
0 -11 6 -7 17 5 13 2 15 -11 10 -10 -4 -15 -3 -11 3 3 5 -10 26 -30 47 -19 20
-35 41 -35 45 0 4 -6 8 -14 8 -8 0 -17 7 -20 16 -3 8 -10 12 -16 9 -5 -3 -10
-3 -10 2 0 4 -18 8 -39 8 -22 0 -37 -3 -34 -7 2 -5 -5 -8 -17 -8 -12 0 -18 5
-15 10 9 14 -1 12 -17 -3z m82 -42 c13 -14 21 -25 18 -25 -2 0 -15 11 -28 25
-13 14 -21 25 -18 25 2 0 15 -11 28 -25z m-470 -339 c0 -3 -4 -8 -10 -11 -5
-3 -10 -1 -10 4 0 6 5 11 10 11 6 0 10 -2 10 -4z m25 -15 c3 -5 2 -12 -3 -15
-5 -3 -9 1 -9 9 0 17 3 19 12 6z m-345 -185 c0 -3 -4 -8 -10 -11 -5 -3 -10 -1
-10 4 0 6 5 11 10 11 6 0 10 -2 10 -4z m795 -46 c3 -6 -1 -7 -9 -4 -18 7 -21
14 -7 14 6 0 13 -4 16 -10z m-1048 -112 c-3 -7 -5 -2 -5 12 0 14 2 19 5 13 2
-7 2 -19 0 -25z m68 22 c3 -6 -1 -7 -9 -4 -18 7 -21 14 -7 14 6 0 13 -4 16
-10z m515 -20 c-6 -11 -23 -25 -37 -31 -37 -14 -40 -4 -4 11 17 7 33 21 37 32
3 11 8 17 11 15 2 -3 -1 -15 -7 -27z m-480 6 c0 -2 -7 -9 -15 -16 -13 -11 -14
-10 -9 4 5 14 24 23 24 12z m580 -41 c-13 -14 -29 -25 -36 -25 -7 0 -15 -8
-17 -17 -4 -14 -5 -12 -6 5 -1 16 5 22 19 22 11 0 25 9 32 20 7 11 17 20 22
20 5 0 -1 -11 -14 -25z m-76 3 c-3 -4 -11 -8 -19 -8 -7 0 -15 -6 -18 -12 -2
-7 -8 -10 -12 -5 -5 4 0 13 10 20 20 15 47 18 39 5z m156 -6 c0 -5 10 -14 23
-19 19 -9 26 -8 35 6 9 13 11 13 9 1 -1 -8 -11 -22 -22 -30 -20 -15 -32 -15
-28 0 1 4 -6 6 -17 3 -16 -4 -18 -1 -15 18 4 23 4 23 -10 5 -8 -10 -12 -24 -8
-30 3 -6 2 -8 -2 -3 -5 4 -16 0 -26 -9 -16 -15 -17 -14 -12 8 6 21 5 22 -13 8
-18 -14 -18 -14 -5 2 7 10 18 15 24 11 6 -4 8 0 4 11 -4 9 -3 14 2 11 5 -3 12
-1 16 5 7 12 45 14 45 2z m-252 -32 c-7 -11 -16 -20 -20 -20 -5 0 -3 9 4 20 7
11 16 20 20 20 5 0 3 -9 -4 -20z m367 1 c9 -16 -9 -20 -23 -5 -10 12 -10 14 2
14 8 0 17 -4 21 -9z m-302 -36 c4 -8 2 -17 -3 -20 -6 -4 -10 3 -10 14 0 25 6
27 13 6z m207 -20 c0 -1 -9 -5 -19 -8 -13 -3 -18 -1 -14 9 4 10 33 10 33 -1z
m-90 1 c0 -3 -4 -8 -10 -11 -5 -3 -10 -1 -10 4 0 6 5 11 10 11 6 0 10 -2 10
-4z m123 -48 c17 -2 18 -5 7 -9 -22 -9 -54 16 -44 33 7 10 9 9 12 -4 2 -9 13
-18 25 -20z m-92 -1 c-10 -9 -11 -8 -5 6 3 10 9 15 12 12 3 -3 0 -11 -7 -18z
m-618 -4 c-7 -3 -9 -12 -6 -21 4 -13 2 -12 -10 3 -22 27 -21 34 5 27 12 -3 17
-7 11 -9z m44 -109 c-3 -3 -12 -4 -19 -1 -8 3 -5 6 6 6 11 1 17 -2 13 -5z
m2180 -630 c-3 -3 -12 -4 -19 -1 -8 3 -5 6 6 6 11 1 17 -2 13 -5z m-577 -215
c0 -5 -4 -9 -8 -9 -5 0 -9 7 -9 15 0 8 4 12 9 9 4 -3 8 -9 8 -15z m227 -61
c-15 -9 -19 -4 -11 16 5 14 9 15 15 5 5 -8 3 -17 -4 -21z m56 2 c3 -11 1 -18
-4 -14 -5 3 -9 0 -9 -6 0 -6 -5 -8 -11 -5 -6 4 -13 -2 -16 -14 -6 -24 -31 -28
-39 -7 -4 11 -30 15 -41 6 -4 -3 -20 -7 -33 -9 -5 0 -10 -5 -10 -11 0 -5 6 -8
13 -6 6 1 9 1 4 -1 -4 -3 -4 -10 0 -16 4 -7 -2 -5 -13 3 -10 8 -21 15 -23 17
-10 6 27 29 43 27 11 -2 20 5 24 18 4 15 7 17 13 6 7 -11 9 -11 9 1 0 9 4 10
13 4 6 -5 18 -8 25 -7 6 1 17 2 22 3 6 0 9 4 9 9 -6 36 14 38 24 2z m274 14
c-3 -3 -12 -4 -19 -1 -8 3 -5 6 6 6 11 1 17 -2 13 -5z m-460 -20 c-3 -3 -12
-4 -19 -1 -8 3 -5 6 6 6 11 1 17 -2 13 -5z m-463 -30 c5 -14 4 -15 -9 -4 -17
14 -19 20 -6 20 5 0 12 -7 15 -16z m-284 -4 c0 -5 -4 -10 -10 -10 -5 0 -10 5
-10 10 0 6 5 10 10 10 6 0 10 -4 10 -10z m1015 0 c3 -5 1 -10 -4 -10 -6 0 -11
5 -11 10 0 6 2 10 4 10 3 0 8 -4 11 -10z m-377 -18 c2 -7 -1 -12 -8 -12 -6 0
-9 4 -6 9 4 5 1 12 -4 14 -6 3 -5 4 2 3 6 -1 14 -8 16 -14z m43 0 c-7 -2 -18
1 -23 6 -8 8 -4 9 13 5 13 -4 18 -8 10 -11z m-76 -12 c3 -6 -5 -10 -19 -10
-13 0 -26 -5 -28 -12 -3 -7 -7 -5 -11 6 -4 9 -3 15 2 11 5 -3 12 -1 16 5 8 13
32 13 40 0z m-285 -14 c0 -3 -4 -8 -10 -11 -5 -3 -10 -1 -10 4 0 6 5 11 10 11
6 0 10 -2 10 -4z m310 -6 c0 -5 -5 -10 -11 -10 -5 0 -7 5 -4 10 3 6 8 10 11
10 2 0 4 -4 4 -10z m-70 -34 c0 -2 -7 -9 -15 -16 -12 -10 -15 -10 -15 4 0 9 7
16 15 16 8 0 15 -2 15 -4z m-215 -25 c-3 -5 -1 -12 5 -16 5 -3 10 -12 10 -18
0 -7 -4 -6 -10 3 -9 13 -11 13 -20 0 -6 -9 -10 -10 -10 -3 0 19 12 43 22 43 5
0 7 -4 3 -9z m55 -5 c0 -2 -7 -9 -15 -16 -13 -11 -14 -10 -9 4 5 14 24 23 24
12z m121 -14 c-7 -2 -18 1 -23 6 -8 8 -4 9 13 5 13 -4 18 -8 10 -11z m52 -9
c-7 -2 -19 -2 -25 0 -7 3 -2 5 12 5 14 0 19 -2 13 -5z m-257 -31 c-10 -2 -22
0 -28 6 -6 6 0 7 19 4 21 -5 23 -7 9 -10z m244 -1 c7 -14 7 -22 0 -26 -6 -4
-9 -1 -8 7 3 13 -5 14 -33 3 -10 -4 -16 0 -16 10 0 9 6 14 14 11 7 -3 13 -1
13 4 0 17 19 11 30 -9z m-532 -17 c9 -19 9 -24 0 -18 -8 5 -9 2 -5 -9 3 -9 2
-19 -3 -22 -6 -4 -10 -1 -10 4 0 17 -24 13 -42 -8 -11 -14 -23 -17 -44 -12
l-29 6 30 3 c17 2 35 8 40 14 7 7 3 8 -12 3 -18 -5 -23 -2 -22 12 0 11 3 13 6
5 4 -10 8 -10 19 -1 8 6 22 9 32 7 11 -3 19 0 19 8 0 8 -4 14 -9 14 -5 0 -6 5
-3 10 10 17 21 11 33 -16z m-269 -100 c2 -2 -5 -4 -16 -4 -12 0 -23 7 -27 15
-5 13 -2 14 17 4 12 -6 24 -13 26 -15z m-75 1 c-4 -8 -11 -15 -16 -15 -6 0 -5
6 2 15 7 8 14 15 16 15 2 0 1 -7 -2 -15z"/>
<path d="M3775 4041 c-3 -5 0 -13 5 -16 13 -8 60 2 60 13 0 11 -58 14 -65 3z"/>
<path d="M3645 3970 c-3 -5 -2 -10 4 -10 5 0 13 5 16 10 3 6 2 10 -4 10 -5 0
-13 -4 -16 -10z"/>
<path d="M3371 3728 c0 -9 -9 -22 -18 -27 -10 -6 -13 -10 -8 -11 21 0 37 18
32 36 -4 16 -5 16 -6 2z"/>
<path d="M2413 3265 c0 -19 4 -32 8 -29 4 2 9 -1 11 -8 3 -7 14 -9 31 -5 l26
7 -23 23 c-50 49 -53 50 -53 12z"/>
<path d="M1160 2949 c0 -5 -4 -8 -9 -4 -6 3 -15 -4 -21 -15 -10 -19 -10 -20 8
-11 26 14 48 41 33 41 -6 0 -11 -5 -11 -11z"/>
<path d="M432 2840 c0 -14 2 -19 5 -12 2 6 2 18 0 25 -3 6 -5 1 -5 -13z"/>
<path d="M441 2742 c-2 -32 19 -165 28 -175 4 -4 20 6 35 22 l27 28 -30 6
c-31 6 -43 31 -54 112 -3 22 -4 24 -6 7z m69 -136 c0 -2 -8 -10 -17 -17 -16
-13 -17 -12 -4 4 13 16 21 21 21 13z"/>
<path d="M5717 2509 c6 -22 23 -26 23 -5 0 8 -6 16 -14 19 -10 4 -12 0 -9 -14z"/>
<path d="M1487 2489 c7 -7 15 -10 18 -7 3 3 -2 9 -12 12 -14 6 -15 5 -6 -5z"/>
<path d="M5490 2273 c-8 -3 -23 -15 -32 -27 l-17 -21 6 23 c6 25 -17 31 -36 8
-12 -14 3 -34 24 -31 26 4 63 25 68 39 4 9 5 16 4 15 -1 0 -9 -3 -17 -6z m-63
-35 c-3 -8 -6 -5 -6 6 -1 11 2 17 5 13 3 -3 4 -12 1 -19z"/>
<path d="M5587 2226 c-4 -10 -13 -13 -24 -10 -15 5 -16 4 -2 -5 19 -12 61 -3
56 12 -6 18 -24 19 -30 3z"/>
<path d="M5488 2213 c7 -3 16 -2 19 1 4 3 -2 6 -13 5 -11 0 -14 -3 -6 -6z"/>
<path d="M5455 2139 c-11 -16 -1 -19 13 -3 7 8 8 14 3 14 -5 0 -13 -5 -16 -11z"/>
<path d="M5425 2131 c-3 -5 -2 -12 3 -15 5 -3 9 1 9 9 0 17 -3 19 -12 6z"/>
<path d="M335 2025 c4 -145 33 -211 149 -333 57 -60 81 -75 169 -103 53 -17
100 -21 306 -26 l245 -6 29 -31 c22 -23 26 -25 13 -6 -9 13 -16 27 -16 31 0 4
24 8 53 9 80 2 101 6 105 18 2 7 -2 10 -11 6 -8 -3 -18 -1 -22 5 -3 6 -11 11
-16 11 -6 0 -7 -4 -4 -10 3 -5 -1 -10 -9 -10 -8 0 -18 5 -21 10 -3 6 -20 10
-36 10 -18 0 -29 5 -28 13 4 30 -2 36 -31 33 -17 -2 -33 1 -36 6 -3 5 -15 6
-26 2 -16 -5 -20 -3 -15 9 4 10 -3 16 -24 21 -16 3 -31 6 -34 6 -12 0 -32 26
-27 35 2 6 -1 5 -8 -2 -10 -9 -16 -9 -27 2 -7 8 -20 12 -28 8 -9 -3 -21 0 -29
6 -7 6 -17 7 -21 3 -5 -4 -5 -1 -1 6 4 7 2 12 -5 12 -7 0 -23 10 -37 23 -15
14 -22 17 -20 7 4 -18 -21 -20 -49 -2 -13 8 -23 11 -23 8 0 -4 -9 -2 -21 4
-13 8 -18 17 -14 28 5 14 4 14 -13 -1 -26 -24 -69 -22 -77 3 -3 11 -12 20 -20
20 -7 0 -15 5 -17 12 -2 6 -23 13 -46 14 -24 1 -39 -2 -36 -8 3 -5 13 -7 23
-3 12 5 13 4 4 -6 -9 -9 -16 -9 -26 -1 -8 7 -18 8 -22 4 -5 -4 -5 -1 -1 6 4 6
2 12 -5 12 -6 0 -9 8 -6 20 4 17 0 20 -26 20 -24 0 -28 3 -17 10 8 5 10 10 4
10 -6 0 -17 -7 -24 -15 -7 -8 -18 -15 -24 -15 -6 0 -5 4 3 9 7 5 10 14 7 20
-4 6 -11 9 -16 6 -4 -3 -15 6 -24 20 -9 14 -22 25 -29 25 -9 0 -8 -3 1 -9 11
-6 10 -10 -4 -15 -10 -4 -15 -4 -11 0 4 4 1 14 -6 22 -6 8 -15 42 -19 76 -5
46 -6 36 -3 -39z"/>
<path d="M5140 2106 c0 -6 18 -12 40 -14 31 -2 40 1 40 13 0 12 -9 15 -40 13
-22 -1 -40 -7 -40 -12z"/>
<path d="M4865 2020 c-16 -16 -25 -30 -21 -30 9 0 56 47 56 56 0 8 -7 4 -35
-26z"/>
<path d="M4960 2035 c0 -8 5 -15 11 -15 5 0 7 -6 3 -12 -6 -10 -5 -10 8 -1 8
7 19 9 24 5 5 -4 0 3 -10 16 -22 26 -36 28 -36 7z"/>
<path d="M4733 1983 c-3 -10 -8 -22 -10 -28 -3 -5 2 -2 10 7 10 13 16 15 25 6
7 -7 12 -9 12 -4 0 4 -7 14 -15 22 -13 14 -16 13 -22 -3z"/>
<path d="M4760 1941 c0 -6 4 -13 10 -16 6 -3 7 1 4 9 -7 18 -14 21 -14 7z"/>
<path d="M4178 1913 c6 -2 18 -2 25 0 6 3 1 5 -13 5 -14 0 -19 -2 -12 -5z"/>
<path d="M4723 1900 c-29 -12 -29 -15 0 -15 13 0 24 6 24 13 0 6 -1 12 -1 11
-1 0 -11 -4 -23 -9z"/>
<path d="M4188 1893 c12 -2 30 -2 40 0 9 3 -1 5 -23 4 -22 0 -30 -2 -17 -4z"/>
<path d="M4115 1869 c-4 -5 -12 -6 -18 -3 -7 4 -6 1 2 -7 10 -10 15 -11 18 -2
2 7 11 9 19 6 8 -3 14 -3 14 0 0 10 -30 16 -35 6z"/>
<path d="M4566 1842 c-3 -5 1 -9 9 -9 8 0 12 4 9 9 -3 4 -7 8 -9 8 -2 0 -6 -4
-9 -8z"/>
<path d="M3993 1813 c1 -5 -1 -8 -4 -8 -12 0 -49 -38 -49 -49 0 -6 8 -2 16 9
8 11 19 19 24 18 4 -1 16 7 25 17 16 18 17 20 2 20 -10 0 -16 -3 -14 -7z"/>
<path d="M3875 1779 c-10 -15 3 -25 16 -12 7 7 7 13 1 17 -6 3 -14 1 -17 -5z"/>
<path d="M956 1762 c-3 -6 3 -12 15 -15 12 -3 19 -1 16 6 -5 15 -24 20 -31 9z"/>
<path d="M1100 1700 c0 -5 5 -10 11 -10 5 0 7 5 4 10 -3 6 -8 10 -11 10 -2 0
-4 -4 -4 -10z"/>
</g>
</svg>
